<mxfile host="Electron" agent="Mozilla/5.0 (Macintosh; Intel Mac OS X 10_15_7) AppleWebKit/537.36 (KHTML, like Gecko) draw.io/27.0.9 Chrome/134.0.6998.205 Electron/35.4.0 Safari/537.36" version="27.0.9">
  <diagram id="tjvaVfPbXBuz_-4a2V07" name="server">
    <mxGraphModel dx="96" dy="625" grid="1" gridSize="10" guides="1" tooltips="1" connect="1" arrows="1" fold="1" page="1" pageScale="1" pageWidth="850" pageHeight="1100" math="0" shadow="0">
      <root>
        <mxCell id="0" />
        <mxCell id="1" parent="0" />
        <mxCell id="wlvsMuiItRTlDOig6Jwx-83" value="ndc-sr:exposedByYangServer" style="edgeStyle=orthogonalEdgeStyle;rounded=0;orthogonalLoop=1;jettySize=auto;html=1;fontSize=13;strokeColor=#000000;entryX=0.5;entryY=1;entryDx=0;entryDy=0;" parent="1" source="wlvsMuiItRTlDOig6Jwx-90" target="wlvsMuiItRTlDOig6Jwx-86" edge="1">
          <mxGeometry x="-0.5443" y="-36" relative="1" as="geometry">
            <mxPoint as="offset" />
            <mxPoint x="1738.13" y="1336.4" as="targetPoint" />
          </mxGeometry>
        </mxCell>
        <mxCell id="wlvsMuiItRTlDOig6Jwx-84" value="ndc-sr:serverAccount" style="edgeStyle=orthogonalEdgeStyle;rounded=0;orthogonalLoop=1;jettySize=auto;html=1;exitX=0.8;exitY=1;exitDx=0;exitDy=0;entryX=0;entryY=0.5;entryDx=0;entryDy=0;strokeColor=#000000;align=center;verticalAlign=middle;fontFamily=Helvetica;fontSize=13;fontColor=default;labelBackgroundColor=default;endArrow=classic;" parent="1" source="wlvsMuiItRTlDOig6Jwx-86" target="wlvsMuiItRTlDOig6Jwx-135" edge="1">
          <mxGeometry x="-0.2045" relative="1" as="geometry">
            <mxPoint as="offset" />
            <mxPoint x="1793.7659999999998" y="1340.6100000000001" as="sourcePoint" />
          </mxGeometry>
        </mxCell>
        <mxCell id="wlvsMuiItRTlDOig6Jwx-85" value="ndc-sr:socketAddress" style="edgeStyle=orthogonalEdgeStyle;rounded=0;orthogonalLoop=1;jettySize=auto;html=1;exitX=0.5;exitY=0;exitDx=0;exitDy=0;entryX=0.5;entryY=1;entryDx=0;entryDy=0;strokeColor=#000000;align=center;verticalAlign=middle;fontFamily=Helvetica;fontSize=13;fontColor=default;labelBackgroundColor=default;endArrow=classic;" parent="1" source="wlvsMuiItRTlDOig6Jwx-86" target="wlvsMuiItRTlDOig6Jwx-136" edge="1">
          <mxGeometry relative="1" as="geometry" />
        </mxCell>
        <mxCell id="wlvsMuiItRTlDOig6Jwx-86" value="ndc-sr:YangServer" style="rounded=0;whiteSpace=wrap;html=1;snapToPoint=1;points=[[0.1,0],[0.2,0],[0.3,0],[0.4,0],[0.5,0],[0.6,0],[0.7,0],[0.8,0],[0.9,0],[0,0.1],[0,0.3],[0,0.5],[0,0.7],[0,0.9],[0.1,1],[0.2,1],[0.3,1],[0.4,1],[0.5,1],[0.6,1],[0.7,1],[0.8,1],[0.9,1],[1,0.1],[1,0.3],[1,0.5],[1,0.7],[1,0.9]];fillColor=#d5e8d4;strokeColor=#000000;fontSize=13;" parent="1" vertex="1">
          <mxGeometry x="1634.55" y="1305" width="211.17" height="30" as="geometry" />
        </mxCell>
        <mxCell id="wlvsMuiItRTlDOig6Jwx-87" value="" style="endArrow=block;html=1;fontColor=#000099;endFill=0;entryX=1;entryY=0.5;entryDx=0;entryDy=0;endSize=8;arcSize=0;rounded=0;edgeStyle=orthogonalEdgeStyle;exitX=0;exitY=0.5;exitDx=0;exitDy=0;fontSize=13;strokeColor=#000000;" parent="1" source="wlvsMuiItRTlDOig6Jwx-89" target="wlvsMuiItRTlDOig6Jwx-86" edge="1">
          <mxGeometry width="50" height="50" relative="1" as="geometry">
            <mxPoint x="1860.02" y="1339.33" as="sourcePoint" />
            <mxPoint x="2016.02" y="1386.33" as="targetPoint" />
            <Array as="points">
              <mxPoint x="1886.31" y="1189" />
              <mxPoint x="1886.31" y="1320" />
            </Array>
          </mxGeometry>
        </mxCell>
        <mxCell id="wlvsMuiItRTlDOig6Jwx-88" value="ndc-sr:netconfCapability" style="edgeStyle=orthogonalEdgeStyle;rounded=0;orthogonalLoop=1;jettySize=auto;html=1;exitX=0.5;exitY=1;exitDx=0;exitDy=0;entryX=0.5;entryY=0;entryDx=0;entryDy=0;fontSize=13;strokeColor=#000000;" parent="1" source="wlvsMuiItRTlDOig6Jwx-89" target="wlvsMuiItRTlDOig6Jwx-106" edge="1">
          <mxGeometry relative="1" as="geometry">
            <Array as="points" />
            <mxPoint as="offset" />
            <mxPoint x="2061.3100000000004" y="1229.99" as="sourcePoint" />
            <mxPoint x="2010.8300000000002" y="1230.24" as="targetPoint" />
          </mxGeometry>
        </mxCell>
        <mxCell id="wlvsMuiItRTlDOig6Jwx-89" value="ndc-sr:NetconfServer" style="rounded=0;whiteSpace=wrap;html=1;snapToPoint=1;points=[[0.1,0],[0.2,0],[0.3,0],[0.4,0],[0.5,0],[0.6,0],[0.7,0],[0.8,0],[0.9,0],[0,0.1],[0,0.3],[0,0.5],[0,0.7],[0,0.9],[0.1,1],[0.2,1],[0.3,1],[0.4,1],[0.5,1],[0.6,1],[0.7,1],[0.8,1],[0.9,1],[1,0.1],[1,0.3],[1,0.5],[1,0.7],[1,0.9]];fillColor=#D5E8D4;strokeColor=#000000;fontSize=13;" parent="1" vertex="1">
          <mxGeometry x="1926.31" y="1170" width="270" height="30" as="geometry" />
        </mxCell>
        <mxCell id="wlvsMuiItRTlDOig6Jwx-90" value="ndc-sr:YangDatastore" style="rounded=0;whiteSpace=wrap;html=1;snapToPoint=1;points=[[0.1,0],[0.2,0],[0.3,0],[0.4,0],[0.5,0],[0.6,0],[0.7,0],[0.8,0],[0.9,0],[0,0.1],[0,0.3],[0,0.5],[0,0.7],[0,0.9],[0.1,1],[0.2,1],[0.3,1],[0.4,1],[0.5,1],[0.6,1],[0.7,1],[0.8,1],[0.9,1],[1,0.1],[1,0.3],[1,0.5],[1,0.7],[1,0.9]];fillColor=#d5e8d4;strokeColor=#000000;fontSize=13;" parent="1" vertex="1">
          <mxGeometry x="1671.42" y="1471.08" width="137.43" height="30" as="geometry" />
        </mxCell>
        <mxCell id="wlvsMuiItRTlDOig6Jwx-91" value="ndc-sr:DynamicDatastore" style="rounded=0;whiteSpace=wrap;html=1;snapToPoint=1;points=[[0.1,0],[0.2,0],[0.3,0],[0.4,0],[0.5,0],[0.6,0],[0.7,0],[0.8,0],[0.9,0],[0,0.1],[0,0.3],[0,0.5],[0,0.7],[0,0.9],[0.1,1],[0.2,1],[0.3,1],[0.4,1],[0.5,1],[0.6,1],[0.7,1],[0.8,1],[0.9,1],[1,0.1],[1,0.3],[1,0.5],[1,0.7],[1,0.9]];fillColor=#d5e8d4;strokeColor=#000000;fontSize=13;" parent="1" vertex="1">
          <mxGeometry x="1485.6299999999999" y="1549" width="158.43" height="30" as="geometry" />
        </mxCell>
        <mxCell id="wlvsMuiItRTlDOig6Jwx-92" value="ndc-sr:ConventionalDatastore" style="rounded=0;whiteSpace=wrap;html=1;snapToPoint=1;points=[[0.1,0],[0.2,0],[0.3,0],[0.4,0],[0.5,0],[0.6,0],[0.7,0],[0.8,0],[0.9,0],[0,0.1],[0,0.3],[0,0.5],[0,0.7],[0,0.9],[0.1,1],[0.2,1],[0.3,1],[0.4,1],[0.5,1],[0.6,1],[0.7,1],[0.8,1],[0.9,1],[1,0.1],[1,0.3],[1,0.5],[1,0.7],[1,0.9]];fillColor=#d5e8d4;strokeColor=#000000;fontSize=13;" parent="1" vertex="1">
          <mxGeometry x="1286.31" y="1549" width="189.79" height="30" as="geometry" />
        </mxCell>
        <mxCell id="wlvsMuiItRTlDOig6Jwx-93" value="ndc-sr:RunningDatastore" style="rounded=0;whiteSpace=wrap;html=1;snapToPoint=1;points=[[0.1,0],[0.2,0],[0.3,0],[0.4,0],[0.5,0],[0.6,0],[0.7,0],[0.8,0],[0.9,0],[0,0.1],[0,0.3],[0,0.5],[0,0.7],[0,0.9],[0.1,1],[0.2,1],[0.3,1],[0.4,1],[0.5,1],[0.6,1],[0.7,1],[0.8,1],[0.9,1],[1,0.1],[1,0.3],[1,0.5],[1,0.7],[1,0.9]];fillColor=#d5e8d4;strokeColor=#000000;fontSize=13;" parent="1" vertex="1">
          <mxGeometry x="1110" y="1647.1599999999999" width="168.79" height="30" as="geometry" />
        </mxCell>
        <mxCell id="wlvsMuiItRTlDOig6Jwx-94" value="ndc-sr:IntendedDatastore" style="rounded=0;whiteSpace=wrap;html=1;snapToPoint=1;points=[[0.1,0],[0.2,0],[0.3,0],[0.4,0],[0.5,0],[0.6,0],[0.7,0],[0.8,0],[0.9,0],[0,0.1],[0,0.3],[0,0.5],[0,0.7],[0,0.9],[0.1,1],[0.2,1],[0.3,1],[0.4,1],[0.5,1],[0.6,1],[0.7,1],[0.8,1],[0.9,1],[1,0.1],[1,0.3],[1,0.5],[1,0.7],[1,0.9]];fillColor=#d5e8d4;strokeColor=#000000;fontSize=13;" parent="1" vertex="1">
          <mxGeometry x="1480" y="1647.1599999999999" width="162.57" height="30" as="geometry" />
        </mxCell>
        <mxCell id="wlvsMuiItRTlDOig6Jwx-95" value="ndc-sr:CandidateDatastore" style="rounded=0;whiteSpace=wrap;html=1;snapToPoint=1;points=[[0.1,0],[0.2,0],[0.3,0],[0.4,0],[0.5,0],[0.6,0],[0.7,0],[0.8,0],[0.9,0],[0,0.1],[0,0.3],[0,0.5],[0,0.7],[0,0.9],[0.1,1],[0.2,1],[0.3,1],[0.4,1],[0.5,1],[0.6,1],[0.7,1],[0.8,1],[0.9,1],[1,0.1],[1,0.3],[1,0.5],[1,0.7],[1,0.9]];fillColor=#d5e8d4;strokeColor=#000000;fontSize=13;" parent="1" vertex="1">
          <mxGeometry x="1290" y="1647.1599999999999" width="170" height="30" as="geometry" />
        </mxCell>
        <mxCell id="wlvsMuiItRTlDOig6Jwx-96" value="ndc-sr:StartupDatastore" style="rounded=0;whiteSpace=wrap;html=1;snapToPoint=1;points=[[0.1,0],[0.2,0],[0.3,0],[0.4,0],[0.5,0],[0.6,0],[0.7,0],[0.8,0],[0.9,0],[0,0.1],[0,0.3],[0,0.5],[0,0.7],[0,0.9],[0.1,1],[0.2,1],[0.3,1],[0.4,1],[0.5,1],[0.6,1],[0.7,1],[0.8,1],[0.9,1],[1,0.1],[1,0.3],[1,0.5],[1,0.7],[1,0.9]];fillColor=#d5e8d4;strokeColor=#000000;fontSize=13;" parent="1" vertex="1">
          <mxGeometry x="1656.31" y="1647.1599999999999" width="157.43" height="30" as="geometry" />
        </mxCell>
        <mxCell id="wlvsMuiItRTlDOig6Jwx-97" value="ndc-sr:OperationalDatastore" style="rounded=0;whiteSpace=wrap;html=1;snapToPoint=1;points=[[0.1,0],[0.2,0],[0.3,0],[0.4,0],[0.5,0],[0.6,0],[0.7,0],[0.8,0],[0.9,0],[0,0.1],[0,0.3],[0,0.5],[0,0.7],[0,0.9],[0.1,1],[0.2,1],[0.3,1],[0.4,1],[0.5,1],[0.6,1],[0.7,1],[0.8,1],[0.9,1],[1,0.1],[1,0.3],[1,0.5],[1,0.7],[1,0.9]];fillColor=#d5e8d4;strokeColor=#000000;fontSize=13;" parent="1" vertex="1">
          <mxGeometry x="1654.46" y="1549" width="171.17" height="30" as="geometry" />
        </mxCell>
        <mxCell id="wlvsMuiItRTlDOig6Jwx-98" value="" style="endArrow=block;html=1;fontColor=#000000;endFill=0;endSize=8;arcSize=0;rounded=0;fontFamily=Helvetica;entryX=0.5;entryY=1;entryDx=0;entryDy=0;exitX=0.5;exitY=0;exitDx=0;exitDy=0;edgeStyle=orthogonalEdgeStyle;fontSize=13;strokeColor=#000000;" parent="1" source="wlvsMuiItRTlDOig6Jwx-92" target="wlvsMuiItRTlDOig6Jwx-90" edge="1">
          <mxGeometry width="50" height="50" relative="1" as="geometry">
            <mxPoint x="1415.24" y="1487.4300000000003" as="sourcePoint" />
            <mxPoint x="1553.74" y="1487.15" as="targetPoint" />
          </mxGeometry>
        </mxCell>
        <mxCell id="wlvsMuiItRTlDOig6Jwx-99" value="" style="endArrow=block;html=1;fontColor=#000000;endFill=0;endSize=8;arcSize=0;rounded=0;fontFamily=Helvetica;entryX=0.5;entryY=1;entryDx=0;entryDy=0;exitX=0.5;exitY=0;exitDx=0;exitDy=0;edgeStyle=orthogonalEdgeStyle;fontSize=13;strokeColor=#000000;" parent="1" source="wlvsMuiItRTlDOig6Jwx-91" target="wlvsMuiItRTlDOig6Jwx-90" edge="1">
          <mxGeometry width="50" height="50" relative="1" as="geometry">
            <mxPoint x="1682.31" y="1557" as="sourcePoint" />
            <mxPoint x="1760.31" y="1510" as="targetPoint" />
          </mxGeometry>
        </mxCell>
        <mxCell id="wlvsMuiItRTlDOig6Jwx-100" value="" style="endArrow=block;html=1;fontColor=#000000;endFill=0;endSize=8;arcSize=0;rounded=0;fontFamily=Helvetica;entryX=0.5;entryY=1;entryDx=0;entryDy=0;exitX=0.5;exitY=0;exitDx=0;exitDy=0;edgeStyle=orthogonalEdgeStyle;fontSize=13;strokeColor=#000000;" parent="1" source="wlvsMuiItRTlDOig6Jwx-97" target="wlvsMuiItRTlDOig6Jwx-90" edge="1">
          <mxGeometry width="50" height="50" relative="1" as="geometry">
            <mxPoint x="1841.31" y="1557" as="sourcePoint" />
            <mxPoint x="1760.31" y="1510" as="targetPoint" />
          </mxGeometry>
        </mxCell>
        <mxCell id="wlvsMuiItRTlDOig6Jwx-101" value="" style="endArrow=block;html=1;fontColor=#000000;endFill=0;endSize=8;arcSize=0;rounded=0;fontFamily=Helvetica;entryX=0.5;entryY=1;entryDx=0;entryDy=0;exitX=0.5;exitY=0;exitDx=0;exitDy=0;edgeStyle=orthogonalEdgeStyle;fontSize=13;strokeColor=#000000;" parent="1" source="wlvsMuiItRTlDOig6Jwx-93" target="wlvsMuiItRTlDOig6Jwx-92" edge="1">
          <mxGeometry width="50" height="50" relative="1" as="geometry">
            <mxPoint x="1847.22" y="1577" as="sourcePoint" />
            <mxPoint x="1621.22" y="1530" as="targetPoint" />
          </mxGeometry>
        </mxCell>
        <mxCell id="wlvsMuiItRTlDOig6Jwx-102" value="" style="endArrow=block;html=1;fontColor=#000000;endFill=0;endSize=8;arcSize=0;rounded=0;fontFamily=Helvetica;exitX=0.5;exitY=0;exitDx=0;exitDy=0;edgeStyle=orthogonalEdgeStyle;entryX=0.5;entryY=1;entryDx=0;entryDy=0;fontSize=13;strokeColor=#000000;" parent="1" source="wlvsMuiItRTlDOig6Jwx-95" target="wlvsMuiItRTlDOig6Jwx-92" edge="1">
          <mxGeometry width="50" height="50" relative="1" as="geometry">
            <mxPoint x="1363.2199999999998" y="1660" as="sourcePoint" />
            <mxPoint x="1557.22" y="1610" as="targetPoint" />
          </mxGeometry>
        </mxCell>
        <mxCell id="wlvsMuiItRTlDOig6Jwx-103" value="" style="endArrow=block;html=1;fontColor=#000000;endFill=0;endSize=8;arcSize=0;rounded=0;fontFamily=Helvetica;exitX=0.5;exitY=0;exitDx=0;exitDy=0;edgeStyle=orthogonalEdgeStyle;entryX=0.5;entryY=1;entryDx=0;entryDy=0;fontSize=13;strokeColor=#000000;" parent="1" source="wlvsMuiItRTlDOig6Jwx-94" target="wlvsMuiItRTlDOig6Jwx-92" edge="1">
          <mxGeometry width="50" height="50" relative="1" as="geometry">
            <mxPoint x="1520.22" y="1660" as="sourcePoint" />
            <mxPoint x="1543.22" y="1607" as="targetPoint" />
          </mxGeometry>
        </mxCell>
        <mxCell id="wlvsMuiItRTlDOig6Jwx-104" value="" style="endArrow=block;html=1;fontColor=#000000;endFill=0;endSize=8;arcSize=0;rounded=0;fontFamily=Helvetica;exitX=0.5;exitY=0;exitDx=0;exitDy=0;edgeStyle=orthogonalEdgeStyle;entryX=0.5;entryY=1;entryDx=0;entryDy=0;fontSize=13;strokeColor=#000000;" parent="1" source="wlvsMuiItRTlDOig6Jwx-96" target="wlvsMuiItRTlDOig6Jwx-92" edge="1">
          <mxGeometry width="50" height="50" relative="1" as="geometry">
            <mxPoint x="1669.22" y="1660" as="sourcePoint" />
            <mxPoint x="1543.22" y="1607" as="targetPoint" />
          </mxGeometry>
        </mxCell>
        <mxCell id="wlvsMuiItRTlDOig6Jwx-105" value="&lt;div&gt;ndc-sr:netconfCapabilityId: xsd:anyURI&lt;/div&gt;&lt;div&gt;ndc-sr:netconfCapabilityName: xsd:string&lt;/div&gt;&lt;div&gt;ndc-sr:netconfCapabilityVersion: xsd:string&lt;/div&gt;" style="rounded=0;whiteSpace=wrap;html=1;snapToPoint=1;points=[[0.1,0],[0.2,0],[0.3,0],[0.4,0],[0.5,0],[0.6,0],[0.7,0],[0.8,0],[0.9,0],[0,0.1],[0,0.3],[0,0.5],[0,0.7],[0,0.9],[0.1,1],[0.2,1],[0.3,1],[0.4,1],[0.5,1],[0.6,1],[0.7,1],[0.8,1],[0.9,1],[1,0.1],[1,0.3],[1,0.5],[1,0.7],[1,0.9]];align=left;spacingLeft=10;fontSize=13;strokeColor=#000000;" parent="1" vertex="1">
          <mxGeometry x="1926.31" y="1305.28" width="270" height="65" as="geometry" />
        </mxCell>
        <mxCell id="wlvsMuiItRTlDOig6Jwx-106" value="ndc-sr:NetconfCapability" style="rounded=0;whiteSpace=wrap;html=1;snapToPoint=1;points=[[0.1,0],[0.2,0],[0.3,0],[0.4,0],[0.5,0],[0.6,0],[0.7,0],[0.8,0],[0.9,0],[0,0.1],[0,0.3],[0,0.5],[0,0.7],[0,0.9],[0.1,1],[0.2,1],[0.3,1],[0.4,1],[0.5,1],[0.6,1],[0.7,1],[0.8,1],[0.9,1],[1,0.1],[1,0.3],[1,0.5],[1,0.7],[1,0.9]];fillColor=#D5E8D4;strokeColor=#000000;fontSize=13;" parent="1" vertex="1">
          <mxGeometry x="1926.31" y="1275.28" width="270" height="30" as="geometry" />
        </mxCell>
        <mxCell id="wlvsMuiItRTlDOig6Jwx-107" value="&lt;u&gt;ndc-sr:WritableRunningCapability&lt;/u&gt;" style="rounded=0;whiteSpace=wrap;html=1;snapToPoint=1;points=[[0.1,0],[0.2,0],[0.3,0],[0.4,0],[0.5,0],[0.6,0],[0.7,0],[0.8,0],[0.9,0],[0,0.1],[0,0.3],[0,0.5],[0,0.7],[0,0.9],[0.1,1],[0.2,1],[0.3,1],[0.4,1],[0.5,1],[0.6,1],[0.7,1],[0.8,1],[0.9,1],[1,0.1],[1,0.3],[1,0.5],[1,0.7],[1,0.9]];fillColor=#D5E8D4;strokeColor=#000000;fontSize=13;" parent="1" vertex="1">
          <mxGeometry x="2286.31" y="1411" width="220" height="30" as="geometry" />
        </mxCell>
        <mxCell id="wlvsMuiItRTlDOig6Jwx-108" value="&lt;u&gt;ndc-sr:CandidateCapability&lt;/u&gt;" style="rounded=0;whiteSpace=wrap;html=1;snapToPoint=1;points=[[0.1,0],[0.2,0],[0.3,0],[0.4,0],[0.5,0],[0.6,0],[0.7,0],[0.8,0],[0.9,0],[0,0.1],[0,0.3],[0,0.5],[0,0.7],[0,0.9],[0.1,1],[0.2,1],[0.3,1],[0.4,1],[0.5,1],[0.6,1],[0.7,1],[0.8,1],[0.9,1],[1,0.1],[1,0.3],[1,0.5],[1,0.7],[1,0.9]];fillColor=#D5E8D4;strokeColor=#000000;fontSize=13;" parent="1" vertex="1">
          <mxGeometry x="2286.31" y="1170" width="220" height="30" as="geometry" />
        </mxCell>
        <mxCell id="wlvsMuiItRTlDOig6Jwx-109" value="&lt;u&gt;ndc-sr:ConfirmedCommitCapability&lt;/u&gt;" style="rounded=0;whiteSpace=wrap;html=1;snapToPoint=1;points=[[0.1,0],[0.2,0],[0.3,0],[0.4,0],[0.5,0],[0.6,0],[0.7,0],[0.8,0],[0.9,0],[0,0.1],[0,0.3],[0,0.5],[0,0.7],[0,0.9],[0.1,1],[0.2,1],[0.3,1],[0.4,1],[0.5,1],[0.6,1],[0.7,1],[0.8,1],[0.9,1],[1,0.1],[1,0.3],[1,0.5],[1,0.7],[1,0.9]];fillColor=#D5E8D4;strokeColor=#000000;fontSize=13;" parent="1" vertex="1">
          <mxGeometry x="2286.31" y="1211" width="220" height="30" as="geometry" />
        </mxCell>
        <mxCell id="wlvsMuiItRTlDOig6Jwx-110" value="&lt;u&gt;ndc-sr:StartupCapability&lt;/u&gt;" style="rounded=0;whiteSpace=wrap;html=1;snapToPoint=1;points=[[0.1,0],[0.2,0],[0.3,0],[0.4,0],[0.5,0],[0.6,0],[0.7,0],[0.8,0],[0.9,0],[0,0.1],[0,0.3],[0,0.5],[0,0.7],[0,0.9],[0.1,1],[0.2,1],[0.3,1],[0.4,1],[0.5,1],[0.6,1],[0.7,1],[0.8,1],[0.9,1],[1,0.1],[1,0.3],[1,0.5],[1,0.7],[1,0.9]];fillColor=#D5E8D4;strokeColor=#000000;fontSize=13;" parent="1" vertex="1">
          <mxGeometry x="2286.31" y="1251" width="220" height="30" as="geometry" />
        </mxCell>
        <mxCell id="wlvsMuiItRTlDOig6Jwx-111" value="&lt;u&gt;ndc-sr:RollbackOnErrorCapability&lt;/u&gt;" style="rounded=0;whiteSpace=wrap;html=1;snapToPoint=1;points=[[0.1,0],[0.2,0],[0.3,0],[0.4,0],[0.5,0],[0.6,0],[0.7,0],[0.8,0],[0.9,0],[0,0.1],[0,0.3],[0,0.5],[0,0.7],[0,0.9],[0.1,1],[0.2,1],[0.3,1],[0.4,1],[0.5,1],[0.6,1],[0.7,1],[0.8,1],[0.9,1],[1,0.1],[1,0.3],[1,0.5],[1,0.7],[1,0.9]];fillColor=#D5E8D4;strokeColor=#000000;fontSize=13;" parent="1" vertex="1">
          <mxGeometry x="2286.31" y="1291" width="220" height="30" as="geometry" />
        </mxCell>
        <mxCell id="wlvsMuiItRTlDOig6Jwx-112" value="&lt;u&gt;ndc-sr:UrlCapability&lt;/u&gt;" style="rounded=0;whiteSpace=wrap;html=1;snapToPoint=1;points=[[0.1,0],[0.2,0],[0.3,0],[0.4,0],[0.5,0],[0.6,0],[0.7,0],[0.8,0],[0.9,0],[0,0.1],[0,0.3],[0,0.5],[0,0.7],[0,0.9],[0.1,1],[0.2,1],[0.3,1],[0.4,1],[0.5,1],[0.6,1],[0.7,1],[0.8,1],[0.9,1],[1,0.1],[1,0.3],[1,0.5],[1,0.7],[1,0.9]];fillColor=#D5E8D4;strokeColor=#000000;fontSize=13;" parent="1" vertex="1">
          <mxGeometry x="2286.31" y="1330.99" width="220" height="30" as="geometry" />
        </mxCell>
        <mxCell id="wlvsMuiItRTlDOig6Jwx-113" value="&lt;u&gt;ndc-sr:ValidateCapability&lt;/u&gt;" style="rounded=0;whiteSpace=wrap;html=1;snapToPoint=1;points=[[0.1,0],[0.2,0],[0.3,0],[0.4,0],[0.5,0],[0.6,0],[0.7,0],[0.8,0],[0.9,0],[0,0.1],[0,0.3],[0,0.5],[0,0.7],[0,0.9],[0.1,1],[0.2,1],[0.3,1],[0.4,1],[0.5,1],[0.6,1],[0.7,1],[0.8,1],[0.9,1],[1,0.1],[1,0.3],[1,0.5],[1,0.7],[1,0.9]];fillColor=#D5E8D4;strokeColor=#000000;fontSize=13;" parent="1" vertex="1">
          <mxGeometry x="2286.31" y="1371" width="220" height="30" as="geometry" />
        </mxCell>
        <mxCell id="wlvsMuiItRTlDOig6Jwx-114" value="&lt;u&gt;ndc-sr:XpathCapability&lt;/u&gt;" style="rounded=0;whiteSpace=wrap;html=1;snapToPoint=1;points=[[0.1,0],[0.2,0],[0.3,0],[0.4,0],[0.5,0],[0.6,0],[0.7,0],[0.8,0],[0.9,0],[0,0.1],[0,0.3],[0,0.5],[0,0.7],[0,0.9],[0.1,1],[0.2,1],[0.3,1],[0.4,1],[0.5,1],[0.6,1],[0.7,1],[0.8,1],[0.9,1],[1,0.1],[1,0.3],[1,0.5],[1,0.7],[1,0.9]];fillColor=#D5E8D4;strokeColor=#000000;fontSize=13;" parent="1" vertex="1">
          <mxGeometry x="2286.31" y="1451" width="220" height="30" as="geometry" />
        </mxCell>
        <mxCell id="wlvsMuiItRTlDOig6Jwx-115" value="" style="endArrow=open;html=1;fontColor=#000099;endFill=0;dashed=1;entryX=1;entryY=0.5;entryDx=0;entryDy=0;endSize=8;exitX=0;exitY=0.5;exitDx=0;exitDy=0;rounded=0;fontSize=13;edgeStyle=orthogonalEdgeStyle;strokeColor=#000000;" parent="1" source="wlvsMuiItRTlDOig6Jwx-108" target="wlvsMuiItRTlDOig6Jwx-106" edge="1">
          <mxGeometry width="50" height="50" relative="1" as="geometry">
            <mxPoint x="1905.8899999999999" y="1525.61" as="sourcePoint" />
            <mxPoint x="1905.8899999999999" y="1475.6100000000001" as="targetPoint" />
          </mxGeometry>
        </mxCell>
        <mxCell id="wlvsMuiItRTlDOig6Jwx-116" value="" style="endArrow=open;html=1;fontColor=#000099;endFill=0;dashed=1;endSize=8;exitX=0;exitY=0.5;exitDx=0;exitDy=0;rounded=0;entryX=1;entryY=0.5;entryDx=0;entryDy=0;fontSize=13;edgeStyle=orthogonalEdgeStyle;strokeColor=#000000;" parent="1" source="wlvsMuiItRTlDOig6Jwx-109" target="wlvsMuiItRTlDOig6Jwx-106" edge="1">
          <mxGeometry width="50" height="50" relative="1" as="geometry">
            <mxPoint x="2085.89" y="1320.6100000000001" as="sourcePoint" />
            <mxPoint x="2015.8899999999999" y="1335.6100000000001" as="targetPoint" />
          </mxGeometry>
        </mxCell>
        <mxCell id="wlvsMuiItRTlDOig6Jwx-117" value="" style="endArrow=open;html=1;fontColor=#000099;endFill=0;dashed=1;endSize=8;exitX=0;exitY=0.5;exitDx=0;exitDy=0;rounded=0;entryX=1;entryY=0.5;entryDx=0;entryDy=0;fontSize=13;edgeStyle=orthogonalEdgeStyle;strokeColor=#000000;" parent="1" source="wlvsMuiItRTlDOig6Jwx-110" target="wlvsMuiItRTlDOig6Jwx-106" edge="1">
          <mxGeometry width="50" height="50" relative="1" as="geometry">
            <mxPoint x="2085.89" y="1360.6100000000001" as="sourcePoint" />
            <mxPoint x="2015.8899999999999" y="1320.6100000000001" as="targetPoint" />
          </mxGeometry>
        </mxCell>
        <mxCell id="wlvsMuiItRTlDOig6Jwx-118" value="" style="endArrow=open;html=1;fontColor=#000099;endFill=0;dashed=1;endSize=8;exitX=0;exitY=0.5;exitDx=0;exitDy=0;rounded=0;entryX=1;entryY=0.5;entryDx=0;entryDy=0;fontSize=13;edgeStyle=orthogonalEdgeStyle;strokeColor=#000000;" parent="1" source="wlvsMuiItRTlDOig6Jwx-111" target="wlvsMuiItRTlDOig6Jwx-106" edge="1">
          <mxGeometry width="50" height="50" relative="1" as="geometry">
            <mxPoint x="2085.89" y="1403.6100000000001" as="sourcePoint" />
            <mxPoint x="2015.8899999999999" y="1320.6100000000001" as="targetPoint" />
          </mxGeometry>
        </mxCell>
        <mxCell id="wlvsMuiItRTlDOig6Jwx-119" value="" style="endArrow=open;html=1;fontColor=#000099;endFill=0;dashed=1;endSize=8;exitX=0;exitY=0.5;exitDx=0;exitDy=0;rounded=0;entryX=1;entryY=0.5;entryDx=0;entryDy=0;fontSize=13;edgeStyle=orthogonalEdgeStyle;strokeColor=#000000;" parent="1" source="wlvsMuiItRTlDOig6Jwx-112" target="wlvsMuiItRTlDOig6Jwx-106" edge="1">
          <mxGeometry width="50" height="50" relative="1" as="geometry">
            <mxPoint x="2085.89" y="1440.6100000000001" as="sourcePoint" />
            <mxPoint x="2015.8899999999999" y="1320.6100000000001" as="targetPoint" />
          </mxGeometry>
        </mxCell>
        <mxCell id="wlvsMuiItRTlDOig6Jwx-120" value="" style="endArrow=open;html=1;fontColor=#000099;endFill=0;dashed=1;endSize=8;exitX=0;exitY=0.5;exitDx=0;exitDy=0;rounded=0;entryX=1;entryY=0.5;entryDx=0;entryDy=0;fontSize=13;edgeStyle=orthogonalEdgeStyle;strokeColor=#000000;" parent="1" source="wlvsMuiItRTlDOig6Jwx-113" target="wlvsMuiItRTlDOig6Jwx-106" edge="1">
          <mxGeometry width="50" height="50" relative="1" as="geometry">
            <mxPoint x="2085.89" y="1480.6100000000001" as="sourcePoint" />
            <mxPoint x="2015.8899999999999" y="1320.6100000000001" as="targetPoint" />
          </mxGeometry>
        </mxCell>
        <mxCell id="wlvsMuiItRTlDOig6Jwx-121" value="" style="endArrow=open;html=1;fontColor=#000099;endFill=0;dashed=1;endSize=8;exitX=0;exitY=0.5;exitDx=0;exitDy=0;rounded=0;entryX=1;entryY=0.5;entryDx=0;entryDy=0;fontSize=13;edgeStyle=orthogonalEdgeStyle;strokeColor=#000000;" parent="1" source="wlvsMuiItRTlDOig6Jwx-107" target="wlvsMuiItRTlDOig6Jwx-106" edge="1">
          <mxGeometry width="50" height="50" relative="1" as="geometry">
            <mxPoint x="2085.89" y="1520.61" as="sourcePoint" />
            <mxPoint x="2015.8899999999999" y="1320.6100000000001" as="targetPoint" />
          </mxGeometry>
        </mxCell>
        <mxCell id="wlvsMuiItRTlDOig6Jwx-122" value="" style="endArrow=open;html=1;fontColor=#000099;endFill=0;dashed=1;endSize=8;exitX=0;exitY=0.5;exitDx=0;exitDy=0;rounded=0;entryX=1;entryY=0.5;entryDx=0;entryDy=0;fontSize=13;edgeStyle=orthogonalEdgeStyle;strokeColor=#000000;" parent="1" source="wlvsMuiItRTlDOig6Jwx-114" target="wlvsMuiItRTlDOig6Jwx-106" edge="1">
          <mxGeometry width="50" height="50" relative="1" as="geometry">
            <mxPoint x="2085.89" y="1560.61" as="sourcePoint" />
            <mxPoint x="2015.8899999999999" y="1320.6100000000001" as="targetPoint" />
          </mxGeometry>
        </mxCell>
        <mxCell id="wlvsMuiItRTlDOig6Jwx-123" value="&lt;u&gt;ndc-sr:YangLibrary10Capability&lt;/u&gt;" style="rounded=0;whiteSpace=wrap;html=1;snapToPoint=1;points=[[0.1,0],[0.2,0],[0.3,0],[0.4,0],[0.5,0],[0.6,0],[0.7,0],[0.8,0],[0.9,0],[0,0.1],[0,0.3],[0,0.5],[0,0.7],[0,0.9],[0.1,1],[0.2,1],[0.3,1],[0.4,1],[0.5,1],[0.6,1],[0.7,1],[0.8,1],[0.9,1],[1,0.1],[1,0.3],[1,0.5],[1,0.7],[1,0.9]];fillColor=#D5E8D4;strokeColor=#000000;fontSize=13;" parent="1" vertex="1">
          <mxGeometry x="2286.31" y="1490.3899999999999" width="220" height="30" as="geometry" />
        </mxCell>
        <mxCell id="wlvsMuiItRTlDOig6Jwx-124" value="" style="endArrow=open;html=1;fontColor=#000099;endFill=0;dashed=1;endSize=8;exitX=0;exitY=0.5;exitDx=0;exitDy=0;rounded=0;entryX=1;entryY=0.5;entryDx=0;entryDy=0;fontSize=13;edgeStyle=orthogonalEdgeStyle;strokeColor=#000000;" parent="1" source="wlvsMuiItRTlDOig6Jwx-123" target="wlvsMuiItRTlDOig6Jwx-106" edge="1">
          <mxGeometry width="50" height="50" relative="1" as="geometry">
            <mxPoint x="2092.89" y="1617" as="sourcePoint" />
            <mxPoint x="2015.8899999999999" y="1336" as="targetPoint" />
          </mxGeometry>
        </mxCell>
        <mxCell id="wlvsMuiItRTlDOig6Jwx-125" value="foaf:OnlineAccount" style="rounded=0;whiteSpace=wrap;html=1;snapToPoint=1;points=[[0.1,0],[0.2,0],[0.3,0],[0.4,0],[0.5,0],[0.6,0],[0.7,0],[0.8,0],[0.9,0],[0,0.1],[0,0.3],[0,0.5],[0,0.7],[0,0.9],[0.1,1],[0.2,1],[0.3,1],[0.4,1],[0.5,1],[0.6,1],[0.7,1],[0.8,1],[0.9,1],[1,0.1],[1,0.3],[1,0.5],[1,0.7],[1,0.9]];fillColor=#D5E8D4;strokeColor=#000000;fontSize=13;fontColor=#333333;" parent="1" vertex="1">
          <mxGeometry x="2105.0699999999997" y="1597.1599999999999" width="185.21" height="30" as="geometry" />
        </mxCell>
        <mxCell id="wlvsMuiItRTlDOig6Jwx-126" value="foaf:accountName: xsd:string" style="rounded=0;whiteSpace=wrap;html=1;snapToPoint=1;points=[[0.1,0],[0.2,0],[0.3,0],[0.4,0],[0.5,0],[0.6,0],[0.7,0],[0.8,0],[0.9,0],[0,0.1],[0,0.3],[0,0.5],[0,0.7],[0,0.9],[0.1,1],[0.2,1],[0.3,1],[0.4,1],[0.5,1],[0.6,1],[0.7,1],[0.8,1],[0.9,1],[1,0.1],[1,0.3],[1,0.5],[1,0.7],[1,0.9]];align=left;spacingLeft=10;fontSize=13;strokeColor=#000000;" parent="1" vertex="1">
          <mxGeometry x="2105.0699999999997" y="1627.1599999999999" width="185.21" height="30" as="geometry" />
        </mxCell>
        <mxCell id="wlvsMuiItRTlDOig6Jwx-127" value="core:hasFacet" style="edgeStyle=orthogonalEdgeStyle;rounded=0;orthogonalLoop=1;jettySize=auto;html=1;exitX=0.5;exitY=1;exitDx=0;exitDy=0;entryX=0.5;entryY=0;entryDx=0;entryDy=0;dashed=1;strokeColor=#000000;align=center;verticalAlign=middle;fontFamily=Helvetica;fontSize=13;fontColor=default;labelBackgroundColor=default;endArrow=classic;" parent="1" source="wlvsMuiItRTlDOig6Jwx-128" target="wlvsMuiItRTlDOig6Jwx-129" edge="1">
          <mxGeometry x="-0.1489" relative="1" as="geometry">
            <mxPoint as="offset" />
          </mxGeometry>
        </mxCell>
        <mxCell id="wlvsMuiItRTlDOig6Jwx-128" value="observable:userName: xsd:string" style="rounded=0;whiteSpace=wrap;html=1;snapToPoint=1;points=[[0.1,0],[0.2,0],[0.3,0],[0.4,0],[0.5,0],[0.6,0],[0.7,0],[0.8,0],[0.9,0],[0,0.1],[0,0.3],[0,0.5],[0,0.7],[0,0.9],[0.1,1],[0.2,1],[0.3,1],[0.4,1],[0.5,1],[0.6,1],[0.7,1],[0.8,1],[0.9,1],[1,0.1],[1,0.3],[1,0.5],[1,0.7],[1,0.9]];align=left;spacingLeft=10;fontSize=13;dashed=1;strokeColor=#000000;" parent="1" vertex="1">
          <mxGeometry x="1850.2199999999998" y="1519" width="225.21" height="30" as="geometry" />
        </mxCell>
        <mxCell id="wlvsMuiItRTlDOig6Jwx-129" value="observable:AccountAuthenticationFacet" style="rounded=0;whiteSpace=wrap;html=1;snapToPoint=1;points=[[0.1,0],[0.2,0],[0.3,0],[0.4,0],[0.5,0],[0.6,0],[0.7,0],[0.8,0],[0.9,0],[0,0.1],[0,0.3],[0,0.5],[0,0.7],[0,0.9],[0.1,1],[0.2,1],[0.3,1],[0.4,1],[0.5,1],[0.6,1],[0.7,1],[0.8,1],[0.9,1],[1,0.1],[1,0.3],[1,0.5],[1,0.7],[1,0.9]];fillColor=#D5E8D4;strokeColor=#000000;fontSize=13;fontColor=#333333;" parent="1" vertex="1">
          <mxGeometry x="1837.82" y="1597.1599999999999" width="250" height="30" as="geometry" />
        </mxCell>
        <mxCell id="wlvsMuiItRTlDOig6Jwx-130" value="observable:password: xsd:string&lt;div&gt;observable:passwordType: xsd:string&lt;/div&gt;" style="rounded=0;whiteSpace=wrap;html=1;snapToPoint=1;points=[[0.1,0],[0.2,0],[0.3,0],[0.4,0],[0.5,0],[0.6,0],[0.7,0],[0.8,0],[0.9,0],[0,0.1],[0,0.3],[0,0.5],[0,0.7],[0,0.9],[0.1,1],[0.2,1],[0.3,1],[0.4,1],[0.5,1],[0.6,1],[0.7,1],[0.8,1],[0.9,1],[1,0.1],[1,0.3],[1,0.5],[1,0.7],[1,0.9]];align=left;spacingLeft=10;fontSize=13;strokeColor=#000000;" parent="1" vertex="1">
          <mxGeometry x="1837.82" y="1627.1599999999999" width="250" height="50" as="geometry" />
        </mxCell>
        <mxCell id="wlvsMuiItRTlDOig6Jwx-131" value="observable:UserAccount" style="rounded=0;whiteSpace=wrap;html=1;snapToPoint=1;points=[[0.1,0],[0.2,0],[0.3,0],[0.4,0],[0.5,0],[0.6,0],[0.7,0],[0.8,0],[0.9,0],[0,0.1],[0,0.3],[0,0.5],[0,0.7],[0,0.9],[0.1,1],[0.2,1],[0.3,1],[0.4,1],[0.5,1],[0.6,1],[0.7,1],[0.8,1],[0.9,1],[1,0.1],[1,0.3],[1,0.5],[1,0.7],[1,0.9]];fillColor=#D5E8D4;strokeColor=#000000;fontSize=13;fontColor=#333333;" parent="1" vertex="1">
          <mxGeometry x="1850.2199999999998" y="1490" width="225.21" height="30" as="geometry" />
        </mxCell>
        <mxCell id="wlvsMuiItRTlDOig6Jwx-132" value="" style="endArrow=block;html=1;fontColor=#000000;endFill=0;endSize=8;arcSize=0;rounded=0;fontFamily=Helvetica;entryX=0.5;entryY=0;entryDx=0;entryDy=0;exitX=0.5;exitY=1;exitDx=0;exitDy=0;edgeStyle=orthogonalEdgeStyle;fontSize=13;strokeColor=#000000;" parent="1" source="wlvsMuiItRTlDOig6Jwx-134" target="wlvsMuiItRTlDOig6Jwx-131" edge="1">
          <mxGeometry width="50" height="50" relative="1" as="geometry">
            <mxPoint x="1756.31" y="1490" as="sourcePoint" />
            <mxPoint x="1742.31" y="1567" as="targetPoint" />
            <Array as="points">
              <mxPoint x="2062.31" y="1460" />
              <mxPoint x="1963.31" y="1460" />
              <mxPoint x="1963.31" y="1480" />
            </Array>
          </mxGeometry>
        </mxCell>
        <mxCell id="wlvsMuiItRTlDOig6Jwx-133" value="" style="endArrow=block;html=1;fontColor=#000000;endFill=0;endSize=8;arcSize=0;rounded=0;fontFamily=Helvetica;entryX=0.4;entryY=0;entryDx=0;entryDy=0;exitX=0.5;exitY=1;exitDx=0;exitDy=0;edgeStyle=orthogonalEdgeStyle;fontSize=13;strokeColor=#000000;" parent="1" source="wlvsMuiItRTlDOig6Jwx-134" target="wlvsMuiItRTlDOig6Jwx-125" edge="1">
          <mxGeometry width="50" height="50" relative="1" as="geometry">
            <mxPoint x="1989.31" y="1430" as="sourcePoint" />
            <mxPoint x="1989.31" y="1482" as="targetPoint" />
            <Array as="points">
              <mxPoint x="2062.31" y="1460" />
              <mxPoint x="2179.31" y="1460" />
            </Array>
          </mxGeometry>
        </mxCell>
        <mxCell id="wlvsMuiItRTlDOig6Jwx-134" value="&lt;div&gt;ndc-sr:username: xsd:string&lt;/div&gt;" style="rounded=0;whiteSpace=wrap;html=1;snapToPoint=1;points=[[0.1,0],[0.2,0],[0.3,0],[0.4,0],[0.5,0],[0.6,0],[0.7,0],[0.8,0],[0.9,0],[0,0.1],[0,0.3],[0,0.5],[0,0.7],[0,0.9],[0.1,1],[0.2,1],[0.3,1],[0.4,1],[0.5,1],[0.6,1],[0.7,1],[0.8,1],[0.9,1],[1,0.1],[1,0.3],[1,0.5],[1,0.7],[1,0.9]];align=left;spacingLeft=10;fontSize=13;strokeColor=#000000;" parent="1" vertex="1">
          <mxGeometry x="1966.31" y="1417" width="190" height="30" as="geometry" />
        </mxCell>
        <mxCell id="wlvsMuiItRTlDOig6Jwx-135" value="ndc-sr:ServerAccount" style="rounded=0;whiteSpace=wrap;html=1;snapToPoint=1;points=[[0.1,0],[0.2,0],[0.3,0],[0.4,0],[0.5,0],[0.6,0],[0.7,0],[0.8,0],[0.9,0],[0,0.1],[0,0.3],[0,0.5],[0,0.7],[0,0.9],[0.1,1],[0.2,1],[0.3,1],[0.4,1],[0.5,1],[0.6,1],[0.7,1],[0.8,1],[0.9,1],[1,0.1],[1,0.3],[1,0.5],[1,0.7],[1,0.9]];fillColor=#d5e8d4;strokeColor=#000000;fontSize=13;" parent="1" vertex="1">
          <mxGeometry x="1966.31" y="1387" width="190" height="30" as="geometry" />
        </mxCell>
        <mxCell id="wlvsMuiItRTlDOig6Jwx-136" value="observable:addressValue: xsd:string" style="rounded=0;whiteSpace=wrap;html=1;snapToPoint=1;points=[[0.1,0],[0.2,0],[0.3,0],[0.4,0],[0.5,0],[0.6,0],[0.7,0],[0.8,0],[0.9,0],[0,0.1],[0,0.3],[0,0.5],[0,0.7],[0,0.9],[0.1,1],[0.2,1],[0.3,1],[0.4,1],[0.5,1],[0.6,1],[0.7,1],[0.8,1],[0.9,1],[1,0.1],[1,0.3],[1,0.5],[1,0.7],[1,0.9]];align=left;spacingLeft=10;fontSize=13;dashed=1;strokeColor=#000000;" parent="1" vertex="1">
          <mxGeometry x="1627.53" y="1200" width="225.21" height="30" as="geometry" />
        </mxCell>
        <mxCell id="wlvsMuiItRTlDOig6Jwx-137" value="observable:SocketAddress" style="rounded=0;whiteSpace=wrap;html=1;snapToPoint=1;points=[[0.1,0],[0.2,0],[0.3,0],[0.4,0],[0.5,0],[0.6,0],[0.7,0],[0.8,0],[0.9,0],[0,0.1],[0,0.3],[0,0.5],[0,0.7],[0,0.9],[0.1,1],[0.2,1],[0.3,1],[0.4,1],[0.5,1],[0.6,1],[0.7,1],[0.8,1],[0.9,1],[1,0.1],[1,0.3],[1,0.5],[1,0.7],[1,0.9]];fillColor=#D5E8D4;strokeColor=#000000;fontSize=13;fontColor=#333333;" parent="1" vertex="1">
          <mxGeometry x="1627.53" y="1170" width="225.21" height="30" as="geometry" />
        </mxCell>
        <mxCell id="wlvsMuiItRTlDOig6Jwx-138" value="&lt;u&gt;ndc-sr:YangLibrary11Capability&lt;/u&gt;" style="rounded=0;whiteSpace=wrap;html=1;snapToPoint=1;points=[[0.1,0],[0.2,0],[0.3,0],[0.4,0],[0.5,0],[0.6,0],[0.7,0],[0.8,0],[0.9,0],[0,0.1],[0,0.3],[0,0.5],[0,0.7],[0,0.9],[0.1,1],[0.2,1],[0.3,1],[0.4,1],[0.5,1],[0.6,1],[0.7,1],[0.8,1],[0.9,1],[1,0.1],[1,0.3],[1,0.5],[1,0.7],[1,0.9]];fillColor=#D5E8D4;strokeColor=#000000;fontSize=13;" parent="1" vertex="1">
          <mxGeometry x="2286.31" y="1531.3899999999999" width="220" height="30" as="geometry" />
        </mxCell>
        <mxCell id="wlvsMuiItRTlDOig6Jwx-139" value="" style="endArrow=open;html=1;fontColor=#000099;endFill=0;dashed=1;endSize=8;exitX=0;exitY=0.5;exitDx=0;exitDy=0;rounded=0;fontSize=13;edgeStyle=orthogonalEdgeStyle;strokeColor=#000000;entryX=1;entryY=0.5;entryDx=0;entryDy=0;" parent="1" source="wlvsMuiItRTlDOig6Jwx-138" target="wlvsMuiItRTlDOig6Jwx-106" edge="1">
          <mxGeometry width="50" height="50" relative="1" as="geometry">
            <mxPoint x="2296.31" y="1504" as="sourcePoint" />
            <mxPoint x="2216.31" y="1250" as="targetPoint" />
          </mxGeometry>
        </mxCell>
        <mxCell id="wlvsMuiItRTlDOig6Jwx-140" value="&lt;div style=&quot;border-color: var(--border-color);&quot;&gt;&lt;div style=&quot;border-color: var(--border-color);&quot;&gt;&lt;b style=&quot;border-color: var(--border-color);&quot;&gt;&lt;/b&gt;&lt;b&gt;ndc-sr&lt;/b&gt;:&amp;nbsp;&lt;span style=&quot;white-space: pre;&quot;&gt;https://w3id.org/network-data-catalog/server#&lt;/span&gt;&lt;/div&gt;&lt;div style=&quot;border-color: var(--border-color);&quot;&gt;&lt;b style=&quot;background-color: transparent; color: light-dark(rgb(0, 0, 0), rgb(255, 255, 255));&quot;&gt;core:&amp;nbsp;&lt;/b&gt;&lt;span style=&quot;background-color: transparent; color: light-dark(rgb(0, 0, 0), rgb(255, 255, 255));&quot;&gt;https://ontology.unifiedcyberontology.org/uco/core/&lt;/span&gt;&lt;br&gt;&lt;/div&gt;&lt;div style=&quot;border-color: var(--border-color);&quot;&gt;&lt;span style=&quot;background-color: initial;&quot;&gt;&lt;b&gt;foaf:&amp;nbsp;&lt;/b&gt;&lt;/span&gt;&lt;span style=&quot;background-color: transparent;&quot;&gt;http://xmlns.com/foaf/0.1/&lt;/span&gt;&lt;/div&gt;&lt;div style=&quot;border-color: var(--border-color);&quot;&gt;&lt;div style=&quot;border-color: var(--border-color);&quot;&gt;&lt;span style=&quot;background-color: initial; color: light-dark(rgb(0, 0, 0), rgb(255, 255, 255));&quot;&gt;&lt;b&gt;observable:&amp;nbsp;&lt;/b&gt;&lt;/span&gt;&lt;span style=&quot;background-color: transparent; color: light-dark(rgb(0, 0, 0), rgb(255, 255, 255));&quot;&gt;https://ontology.unifiedcyberontology.org/uco/observable/&lt;/span&gt;&lt;/div&gt;&lt;/div&gt;&lt;/div&gt;&lt;b style=&quot;border-color: var(--border-color);&quot;&gt;&lt;div style=&quot;&quot;&gt;&lt;/div&gt;&lt;/b&gt;" style="shape=note;whiteSpace=wrap;html=1;backgroundOutline=1;darkOpacity=0.05;size=13;align=left;spacingLeft=10;fontFamily=Helvetica;" parent="1" vertex="1">
          <mxGeometry x="1769.17" y="780" width="607.14" height="79.45" as="geometry" />
        </mxCell>
        <mxCell id="wlvsMuiItRTlDOig6Jwx-141" value="&lt;div&gt;&lt;b&gt;dcterms:title&lt;/b&gt;: &quot;The Network Data Catalog Ontology – Server&quot;&lt;br&gt;&lt;/div&gt;&lt;div&gt;&lt;b&gt;dcterms:created&lt;/b&gt;: &quot;2025-05-17&quot;^^xsd:date&lt;/div&gt;&lt;div&gt;&lt;b style=&quot;color: light-dark(rgb(0, 0, 0), rgb(237, 237, 237)); background-color: light-dark(rgb(255, 255, 255), rgb(18, 18, 18));&quot;&gt;dcterms:creator:&lt;/b&gt;&lt;span style=&quot;color: light-dark(rgb(0, 0, 0), rgb(237, 237, 237)); background-color: light-dark(rgb(255, 255, 255), rgb(18, 18, 18));&quot;&gt;&amp;nbsp;&quot;Ignacio Dominguez Martinez-Casanueva (&lt;/span&gt;&lt;span style=&quot;background-color: light-dark(rgb(255, 255, 255), rgb(18, 18, 18));&quot;&gt;https://orcid.org/0000-0002-8573-127X&lt;/span&gt;&lt;span style=&quot;background-color: light-dark(rgb(255, 255, 255), rgb(18, 18, 18)); color: light-dark(rgb(0, 0, 0), rgb(237, 237, 237));&quot;&gt;)&quot;&lt;/span&gt;&lt;/div&gt;&lt;div&gt;&lt;b style=&quot;background-color: light-dark(rgb(255, 255, 255), rgb(18, 18, 18)); color: light-dark(rgb(0, 0, 0), rgb(237, 237, 237));&quot;&gt;dcterms:description:&amp;nbsp;&lt;/b&gt;&lt;span style=&quot;background-color: light-dark(rgb(255, 255, 255), rgb(18, 18, 18)); color: light-dark(rgb(0, 0, 0), rgb(237, 237, 237));&quot;&gt;&quot;An ontology for representing YANG servers&quot;&lt;/span&gt;&lt;/div&gt;&lt;div&gt;&lt;div&gt;&lt;b&gt;dcterms:license:&amp;nbsp;&lt;/b&gt;&lt;span style=&quot;background-color: light-dark(rgb(255, 255, 255), rgb(18, 18, 18));&quot;&gt;&amp;lt;http://purl.org/NET/rdflicense/APACHE2.0&amp;gt;&lt;/span&gt;&lt;/div&gt;&lt;div&gt;&lt;span style=&quot;background-color: light-dark(rgb(255, 255, 255), rgb(18, 18, 18));&quot;&gt;&lt;b&gt;dcterms:publisher: &lt;/b&gt;&amp;lt;&lt;/span&gt;&lt;span style=&quot;background-color: light-dark(rgb(255, 255, 255), rgb(18, 18, 18));&quot;&gt;https://github.com/candil-data-fabric&amp;gt;&lt;/span&gt;&lt;/div&gt;&lt;div&gt;&lt;b&gt;owl:versionInfo&lt;/b&gt;: &quot;1.0.0&quot;&lt;br&gt;&lt;/div&gt;&lt;div&gt;&lt;b&gt;owl:versionIRI:&amp;nbsp;&lt;/b&gt;&amp;lt;&lt;span style=&quot;background-color: light-dark(rgb(255, 255, 255), rgb(18, 18, 18));&quot;&gt;https://w3id.org/network-data-catalog/server&amp;gt;&lt;/span&gt;&lt;/div&gt;&lt;div&gt;&lt;b style=&quot;caret-color: rgb(0, 0, 0);&quot;&gt;owl:priorVersion:&lt;/b&gt;&lt;span style=&quot;caret-color: rgb(0, 0, 0);&quot;&gt;&amp;nbsp;&amp;lt;https://w3id.org/network-data-catalog/server&amp;gt;&lt;/span&gt;&lt;span style=&quot;background-color: light-dark(rgb(255, 255, 255), rgb(18, 18, 18));&quot;&gt;&lt;br&gt;&lt;/span&gt;&lt;/div&gt;&lt;div&gt;&lt;span style=&quot;caret-color: rgb(0, 0, 0);&quot;&gt;&lt;div style=&quot;&quot;&gt;&lt;b&gt;rdfs:seeAlso:&lt;/b&gt; &amp;lt;https://datatracker.ietf.org/doc/rfc8525/&amp;gt;&lt;/div&gt;&lt;div style=&quot;&quot;&gt;&lt;b&gt;schema:codeRepository: &lt;/b&gt;&quot;https://github.com/candil-data-fabric/network-data-catalog-ontology&quot;&lt;span style=&quot;background-color: rgb(249, 249, 249); text-align: justify; color: light-dark(rgb(0, 0, 0), rgb(237, 237, 237));&quot;&gt;^^xsd:anyURI&lt;/span&gt;&lt;/div&gt;&lt;/span&gt;&lt;/div&gt;&lt;div&gt;&lt;div style=&quot;caret-color: rgb(0, 0, 0);&quot;&gt;&lt;b&gt;vann:preferredNamespacePrefix:&lt;/b&gt;&amp;nbsp;&quot;ndc-sr&quot;&lt;/div&gt;&lt;div style=&quot;caret-color: rgb(0, 0, 0);&quot;&gt;&lt;b&gt;vann:preferredNamespaceUri:&lt;/b&gt;&amp;nbsp;&amp;lt;https://w3id.org/network-data-catalog/server#&amp;gt;&lt;/div&gt;&lt;div style=&quot;caret-color: rgb(0, 0, 0);&quot;&gt;&lt;br&gt;&lt;/div&gt;&lt;/div&gt;&lt;/div&gt;" style="shape=document;whiteSpace=wrap;html=1;boundedLbl=1;labelBackgroundColor=#ffffff;strokeColor=#000000;fontSize=12;fontColor=#000000;size=0.13333333333333333;align=left;spacingLeft=10;fontFamily=Helvetica;" parent="1" vertex="1">
          <mxGeometry x="1769.17" y="870" width="607.14" height="250" as="geometry" />
        </mxCell>
        <mxCell id="wlvsMuiItRTlDOig6Jwx-142" value="Legend" style="swimlane;whiteSpace=wrap;html=1;" parent="1" vertex="1">
          <mxGeometry x="1329.76" y="780" width="390" height="330" as="geometry">
            <mxRectangle x="330" y="370" width="80" height="30" as="alternateBounds" />
          </mxGeometry>
        </mxCell>
        <mxCell id="wlvsMuiItRTlDOig6Jwx-143" value="Datatype Property: datatype" style="rounded=0;whiteSpace=wrap;html=1;snapToPoint=1;points=[[0.1,0],[0.2,0],[0.3,0],[0.4,0],[0.5,0],[0.6,0],[0.7,0],[0.8,0],[0.9,0],[0,0.1],[0,0.3],[0,0.5],[0,0.7],[0,0.9],[0.1,1],[0.2,1],[0.3,1],[0.4,1],[0.5,1],[0.6,1],[0.7,1],[0.8,1],[0.9,1],[1,0.1],[1,0.3],[1,0.5],[1,0.7],[1,0.9]];" parent="wlvsMuiItRTlDOig6Jwx-142" vertex="1">
          <mxGeometry x="19" y="70" width="181" height="30" as="geometry" />
        </mxCell>
        <mxCell id="wlvsMuiItRTlDOig6Jwx-144" value="Class" style="rounded=0;whiteSpace=wrap;html=1;snapToPoint=1;points=[[0.1,0],[0.2,0],[0.3,0],[0.4,0],[0.5,0],[0.6,0],[0.7,0],[0.8,0],[0.9,0],[0,0.1],[0,0.3],[0,0.5],[0,0.7],[0,0.9],[0.1,1],[0.2,1],[0.3,1],[0.4,1],[0.5,1],[0.6,1],[0.7,1],[0.8,1],[0.9,1],[1,0.1],[1,0.3],[1,0.5],[1,0.7],[1,0.9]];" parent="wlvsMuiItRTlDOig6Jwx-142" vertex="1">
          <mxGeometry x="19" y="40" width="181" height="30" as="geometry" />
        </mxCell>
        <mxCell id="wlvsMuiItRTlDOig6Jwx-145" value="&lt;u&gt;Individual&lt;/u&gt;" style="rounded=0;whiteSpace=wrap;html=1;snapToPoint=1;points=[[0.1,0],[0.2,0],[0.3,0],[0.4,0],[0.5,0],[0.6,0],[0.7,0],[0.8,0],[0.9,0],[0,0.1],[0,0.3],[0,0.5],[0,0.7],[0,0.9],[0.1,1],[0.2,1],[0.3,1],[0.4,1],[0.5,1],[0.6,1],[0.7,1],[0.8,1],[0.9,1],[1,0.1],[1,0.3],[1,0.5],[1,0.7],[1,0.9]];" parent="wlvsMuiItRTlDOig6Jwx-142" vertex="1">
          <mxGeometry x="19" y="120" width="181" height="30" as="geometry" />
        </mxCell>
        <mxCell id="wlvsMuiItRTlDOig6Jwx-146" value="" style="endArrow=classic;html=1;exitX=1;exitY=0.5;exitDx=0;exitDy=0;endSize=8;arcSize=0;rounded=0;" parent="wlvsMuiItRTlDOig6Jwx-142" edge="1">
          <mxGeometry width="50" height="50" relative="1" as="geometry">
            <mxPoint x="19" y="170" as="sourcePoint" />
            <mxPoint x="200" y="170" as="targetPoint" />
          </mxGeometry>
        </mxCell>
        <mxCell id="wlvsMuiItRTlDOig6Jwx-147" value="Object Property" style="text;html=1;align=center;verticalAlign=middle;resizable=0;points=[];labelBackgroundColor=#ffffff;" parent="wlvsMuiItRTlDOig6Jwx-146" vertex="1" connectable="0">
          <mxGeometry x="-0.1269" relative="1" as="geometry">
            <mxPoint x="11" as="offset" />
          </mxGeometry>
        </mxCell>
        <mxCell id="wlvsMuiItRTlDOig6Jwx-148" value="" style="endArrow=block;html=1;fontColor=#000099;endFill=0;endSize=8;arcSize=0;rounded=0;" parent="wlvsMuiItRTlDOig6Jwx-142" edge="1">
          <mxGeometry width="50" height="50" relative="1" as="geometry">
            <mxPoint x="20" y="190" as="sourcePoint" />
            <mxPoint x="200" y="190" as="targetPoint" />
          </mxGeometry>
        </mxCell>
        <mxCell id="wlvsMuiItRTlDOig6Jwx-149" value="&lt;font style=&quot;font-size: 12px;&quot;&gt;rdfs:subClassOf&lt;/font&gt;" style="edgeLabel;html=1;align=center;verticalAlign=middle;resizable=0;points=[];" parent="wlvsMuiItRTlDOig6Jwx-148" vertex="1" connectable="0">
          <mxGeometry x="-0.1196" y="-1" relative="1" as="geometry">
            <mxPoint x="14" as="offset" />
          </mxGeometry>
        </mxCell>
        <mxCell id="wlvsMuiItRTlDOig6Jwx-150" value="" style="endArrow=open;html=1;fontColor=#000099;endFill=0;dashed=1;endSize=8;rounded=0;" parent="wlvsMuiItRTlDOig6Jwx-142" edge="1">
          <mxGeometry width="50" height="50" relative="1" as="geometry">
            <mxPoint x="20" y="210" as="sourcePoint" />
            <mxPoint x="200" y="210" as="targetPoint" />
          </mxGeometry>
        </mxCell>
        <mxCell id="wlvsMuiItRTlDOig6Jwx-151" value="&lt;font style=&quot;font-size: 12px;&quot;&gt;rdf:type&lt;/font&gt;" style="edgeLabel;html=1;align=center;verticalAlign=middle;resizable=0;points=[];" parent="wlvsMuiItRTlDOig6Jwx-150" vertex="1" connectable="0">
          <mxGeometry x="-0.0889" y="1" relative="1" as="geometry">
            <mxPoint x="8" as="offset" />
          </mxGeometry>
        </mxCell>
        <mxCell id="wlvsMuiItRTlDOig6Jwx-152" value="NDC Server" style="rounded=0;whiteSpace=wrap;html=1;fillColor=#d5e8d4;strokeColor=#000000;fontFamily=Helvetica;fontSize=13;" parent="wlvsMuiItRTlDOig6Jwx-142" vertex="1">
          <mxGeometry x="220" y="40.00000000000007" width="138.5" height="25" as="geometry" />
        </mxCell>
        <mxCell id="wlvsMuiItRTlDOig6Jwx-153" value="ndc-sr:supportsGnmiEncoding" style="edgeStyle=orthogonalEdgeStyle;rounded=0;orthogonalLoop=1;jettySize=auto;html=1;exitX=0.5;exitY=1;exitDx=0;exitDy=0;entryX=0.5;entryY=0;entryDx=0;entryDy=0;fontSize=13;strokeColor=#000000;" parent="1" source="wlvsMuiItRTlDOig6Jwx-154" target="wlvsMuiItRTlDOig6Jwx-156" edge="1">
          <mxGeometry relative="1" as="geometry">
            <Array as="points" />
            <mxPoint as="offset" />
            <mxPoint x="1291.31" y="1229.99" as="sourcePoint" />
            <mxPoint x="1142.3899999999999" y="1251.2899999999997" as="targetPoint" />
          </mxGeometry>
        </mxCell>
        <mxCell id="wlvsMuiItRTlDOig6Jwx-154" value="ndc-sr:GnmiServer" style="rounded=0;whiteSpace=wrap;html=1;snapToPoint=1;points=[[0.1,0],[0.2,0],[0.3,0],[0.4,0],[0.5,0],[0.6,0],[0.7,0],[0.8,0],[0.9,0],[0,0.1],[0,0.3],[0,0.5],[0,0.7],[0,0.9],[0.1,1],[0.2,1],[0.3,1],[0.4,1],[0.5,1],[0.6,1],[0.7,1],[0.8,1],[0.9,1],[1,0.1],[1,0.3],[1,0.5],[1,0.7],[1,0.9]];fillColor=#D5E8D4;strokeColor=#000000;fontSize=13;" parent="1" vertex="1">
          <mxGeometry x="1196.31" y="1170" width="190" height="30" as="geometry" />
        </mxCell>
        <mxCell id="wlvsMuiItRTlDOig6Jwx-155" value="" style="endArrow=block;html=1;fontColor=#000000;endFill=0;endSize=8;arcSize=0;rounded=0;fontFamily=Helvetica;fontStyle=2;exitX=1;exitY=0.5;exitDx=0;exitDy=0;entryX=0;entryY=0.5;entryDx=0;entryDy=0;edgeStyle=orthogonalEdgeStyle;fontSize=13;" parent="1" source="wlvsMuiItRTlDOig6Jwx-154" target="wlvsMuiItRTlDOig6Jwx-86" edge="1">
          <mxGeometry width="50" height="50" relative="1" as="geometry">
            <mxPoint x="1295.2800000000002" y="1218.2" as="sourcePoint" />
            <mxPoint x="1364.3450000000003" y="1203.28" as="targetPoint" />
            <Array as="points">
              <mxPoint x="1596.31" y="1189" />
              <mxPoint x="1596.31" y="1320" />
            </Array>
          </mxGeometry>
        </mxCell>
        <mxCell id="wlvsMuiItRTlDOig6Jwx-156" value="&lt;span&gt;ndc-sr:GnmiEncoding&lt;/span&gt;" style="rounded=0;whiteSpace=wrap;html=1;snapToPoint=1;points=[[0.1,0],[0.2,0],[0.3,0],[0.4,0],[0.5,0],[0.6,0],[0.7,0],[0.8,0],[0.9,0],[0,0.1],[0,0.3],[0,0.5],[0,0.7],[0,0.9],[0.1,1],[0.2,1],[0.3,1],[0.4,1],[0.5,1],[0.6,1],[0.7,1],[0.8,1],[0.9,1],[1,0.1],[1,0.3],[1,0.5],[1,0.7],[1,0.9]];fillColor=#D5E8D4;fontSize=13;" parent="1" vertex="1">
          <mxGeometry x="1196.31" y="1321" width="190" height="30" as="geometry" />
        </mxCell>
        <mxCell id="wlvsMuiItRTlDOig6Jwx-157" value="&lt;u&gt;ndc-sr:JsonGnmiEncoding&lt;/u&gt;" style="rounded=0;whiteSpace=wrap;html=1;snapToPoint=1;points=[[0.1,0],[0.2,0],[0.3,0],[0.4,0],[0.5,0],[0.6,0],[0.7,0],[0.8,0],[0.9,0],[0,0.1],[0,0.3],[0,0.5],[0,0.7],[0,0.9],[0.1,1],[0.2,1],[0.3,1],[0.4,1],[0.5,1],[0.6,1],[0.7,1],[0.8,1],[0.9,1],[1,0.1],[1,0.3],[1,0.5],[1,0.7],[1,0.9]];fontSize=13;" parent="1" vertex="1">
          <mxGeometry x="1196.31" y="1351" width="190" height="30" as="geometry" />
        </mxCell>
        <mxCell id="wlvsMuiItRTlDOig6Jwx-158" value="&lt;u&gt;ndc-sr:JsonIetfGnmiEncoding&lt;/u&gt;" style="rounded=0;whiteSpace=wrap;html=1;snapToPoint=1;points=[[0.1,0],[0.2,0],[0.3,0],[0.4,0],[0.5,0],[0.6,0],[0.7,0],[0.8,0],[0.9,0],[0,0.1],[0,0.3],[0,0.5],[0,0.7],[0,0.9],[0.1,1],[0.2,1],[0.3,1],[0.4,1],[0.5,1],[0.6,1],[0.7,1],[0.8,1],[0.9,1],[1,0.1],[1,0.3],[1,0.5],[1,0.7],[1,0.9]];fontSize=13;" parent="1" vertex="1">
          <mxGeometry x="1196.31" y="1381" width="190" height="30" as="geometry" />
        </mxCell>
        <mxCell id="wlvsMuiItRTlDOig6Jwx-159" value="&lt;u&gt;ndc-sr:ProtobufGnmiEncoding&lt;/u&gt;" style="rounded=0;whiteSpace=wrap;html=1;snapToPoint=1;points=[[0.1,0],[0.2,0],[0.3,0],[0.4,0],[0.5,0],[0.6,0],[0.7,0],[0.8,0],[0.9,0],[0,0.1],[0,0.3],[0,0.5],[0,0.7],[0,0.9],[0.1,1],[0.2,1],[0.3,1],[0.4,1],[0.5,1],[0.6,1],[0.7,1],[0.8,1],[0.9,1],[1,0.1],[1,0.3],[1,0.5],[1,0.7],[1,0.9]];fontSize=13;" parent="1" vertex="1">
          <mxGeometry x="1196.31" y="1411" width="190" height="30" as="geometry" />
        </mxCell>
        <mxCell id="wlvsMuiItRTlDOig6Jwx-160" value="ndc-sr:runsYangServer" style="edgeStyle=orthogonalEdgeStyle;rounded=0;orthogonalLoop=1;jettySize=auto;html=1;exitX=0.5;exitY=0;exitDx=0;exitDy=0;entryX=0;entryY=0.5;entryDx=0;entryDy=0;fontSize=13;" parent="1" source="wlvsMuiItRTlDOig6Jwx-162" target="wlvsMuiItRTlDOig6Jwx-164" edge="1">
          <mxGeometry x="-0.5802" y="3" relative="1" as="geometry">
            <mxPoint as="offset" />
          </mxGeometry>
        </mxCell>
        <mxCell id="wlvsMuiItRTlDOig6Jwx-161" value="&lt;span style=&quot;font-size: 13px;&quot;&gt;ndc-sr:implementsYangDatastore&lt;/span&gt;" style="edgeStyle=orthogonalEdgeStyle;rounded=0;orthogonalLoop=1;jettySize=auto;html=1;exitX=0.5;exitY=1;exitDx=0;exitDy=0;entryX=0;entryY=0.5;entryDx=0;entryDy=0;" parent="1" source="wlvsMuiItRTlDOig6Jwx-163" target="wlvsMuiItRTlDOig6Jwx-90" edge="1">
          <mxGeometry x="-0.5976" relative="1" as="geometry">
            <mxPoint as="offset" />
          </mxGeometry>
        </mxCell>
        <mxCell id="wlvsMuiItRTlDOig6Jwx-162" value="ndc-sr:NetworkDevice" style="rounded=0;whiteSpace=wrap;html=1;snapToPoint=1;points=[[0.1,0],[0.2,0],[0.3,0],[0.4,0],[0.5,0],[0.6,0],[0.7,0],[0.8,0],[0.9,0],[0,0.1],[0,0.3],[0,0.5],[0,0.7],[0,0.9],[0.1,1],[0.2,1],[0.3,1],[0.4,1],[0.5,1],[0.6,1],[0.7,1],[0.8,1],[0.9,1],[1,0.1],[1,0.3],[1,0.5],[1,0.7],[1,0.9]];fillColor=#d5e8d4;strokeColor=#000000;fontSize=13;" parent="1" vertex="1">
          <mxGeometry x="1426.31" y="1388.5" width="180" height="30" as="geometry" />
        </mxCell>
        <mxCell id="wlvsMuiItRTlDOig6Jwx-163" value="&lt;div&gt;ndc-sr:deviceId: xsd:string&lt;/div&gt;" style="rounded=0;whiteSpace=wrap;html=1;snapToPoint=1;points=[[0.1,0],[0.2,0],[0.3,0],[0.4,0],[0.5,0],[0.6,0],[0.7,0],[0.8,0],[0.9,0],[0,0.1],[0,0.3],[0,0.5],[0,0.7],[0,0.9],[0.1,1],[0.2,1],[0.3,1],[0.4,1],[0.5,1],[0.6,1],[0.7,1],[0.8,1],[0.9,1],[1,0.1],[1,0.3],[1,0.5],[1,0.7],[1,0.9]];align=left;spacingLeft=10;fontSize=13;" parent="1" vertex="1">
          <mxGeometry x="1426.31" y="1417" width="180" height="30" as="geometry" />
        </mxCell>
        <mxCell id="wlvsMuiItRTlDOig6Jwx-164" value="&lt;div&gt;ndc-sr:protocolVersion: xsd:string&lt;/div&gt;" style="rounded=0;whiteSpace=wrap;html=1;snapToPoint=1;points=[[0.1,0],[0.2,0],[0.3,0],[0.4,0],[0.5,0],[0.6,0],[0.7,0],[0.8,0],[0.9,0],[0,0.1],[0,0.3],[0,0.5],[0,0.7],[0,0.9],[0.1,1],[0.2,1],[0.3,1],[0.4,1],[0.5,1],[0.6,1],[0.7,1],[0.8,1],[0.9,1],[1,0.1],[1,0.3],[1,0.5],[1,0.7],[1,0.9]];align=left;spacingLeft=10;fontSize=13;" parent="1" vertex="1">
          <mxGeometry x="1634.55" y="1335" width="211.17" height="30" as="geometry" />
        </mxCell>
      </root>
    </mxGraphModel>
  </diagram>
</mxfile>
